<?xml version="1.0" encoding="UTF-8"?>
<svg id="Layer_1" data-name="Layer 1" xmlns="http://www.w3.org/2000/svg" viewBox="0 0 32 32">
  <defs>
    <style>
      .cls-1 {
        fill: #fff;
        stroke-width: 0px;
      }
    </style>
  </defs>
  <path class="cls-1" d="m19.16,7.18h-5.97c-.2,0-.37.17-.37.37v19.06c0,.21.17.38.37.38h5.97c.2,0,.37-.17.37-.38V7.56c0-.2-.17-.37-.37-.37Zm-2.98,2.05c-.26,0-.48-.22-.48-.48s.22-.47.48-.47.47.21.47.47-.21.48-.47.48Z"/>
  <path class="cls-1" d="m25.99,5.01l-5.96.28c-.2,0-.36.18-.35.39l.83,20.95c0,.21.18.37.39.36l5.96-.28c.2,0,.36-.18.35-.39l-.83-20.95c0-.2-.18-.36-.39-.35Zm-2.88,2.19c-.26.01-.49-.19-.5-.46s.19-.48.46-.49.48.19.49.45-.19.49-.45.5Z"/>
  <path class="cls-1" d="m11.09,8.1l-5.96.4c-.2.01-.36.19-.34.39l1.19,17.74c.01.21.19.36.39.35l5.96-.4c.2-.01.36-.19.34-.4l-1.19-17.74c-.01-.2-.19-.36-.39-.34Zm-2.84,2.24c-.26.02-.49-.18-.51-.45s.18-.49.45-.5.49.18.5.44-.18.49-.44.51Z"/>
</svg>