<?xml version="1.0" encoding="UTF-8"?>
<svg id="Layer_1" data-name="Layer 1" xmlns="http://www.w3.org/2000/svg" viewBox="0 0 32 32">
  <defs>
    <style>
      .cls-1 {
        stroke-width: 0px;
      }
    </style>
  </defs>
  <path class="cls-1" d="m19.2,7.09h-6.03c-.21,0-.37.17-.37.37v19.26c0,.21.17.38.37.38h6.03c.21,0,.37-.17.37-.38V7.46c0-.21-.17-.37-.37-.37Zm-3.01,2.07c-.26,0-.48-.22-.48-.48s.22-.48.48-.48.48.21.48.48-.21.48-.48.48Z"/>
  <path class="cls-1" d="m26.1,4.89l-6.03.28c-.21,0-.37.18-.36.39l.83,21.18c0,.21.19.37.39.36l6.03-.28c.21,0,.37-.18.36-.4l-.83-21.18c0-.21-.18-.37-.39-.36Zm-2.91,2.21c-.26.01-.49-.2-.51-.46s.2-.49.46-.5.49.19.5.45-.19.49-.45.51Z"/>
  <path class="cls-1" d="m11.04,8.02l-6.02.4c-.21.01-.36.19-.35.4l1.2,17.93c.01.21.19.37.4.35l6.02-.4c.21-.01.36-.19.35-.4l-1.2-17.93c-.01-.21-.19-.36-.4-.35Zm-2.87,2.27c-.26.02-.5-.19-.52-.45s.19-.49.45-.51.49.18.51.44-.18.5-.44.51Z"/>
</svg>